<?xml version="1.0" standalone="no"?>
<!DOCTYPE svg PUBLIC "-//W3C//DTD SVG 20010904//EN"
 "http://www.w3.org/TR/2001/REC-SVG-20010904/DTD/svg10.dtd">
<svg version="1.0" xmlns="http://www.w3.org/2000/svg"
 width="200.000000pt" height="200.000000pt" viewBox="0 0 200.000000 200.000000"
 preserveAspectRatio="xMidYMid meet">
<metadata>
Created by potrace 1.15, written by Peter Selinger 2001-2017
</metadata>
<g transform="translate(0.000000,200.000000) scale(0.100000,-0.100000)"
fill="#000000" stroke="none">
<path d="M136 1864 l-26 -27 0 -847 0 -847 26 -27 27 -26 173 0 174 0 0 100 0
100 -100 0 -100 0 0 700 0 700 100 0 100 0 0 100 0 100 -174 0 -173 0 -27 -26z"/>
<path d="M1310 1465 l-75 -75 150 -150 150 -150 -523 0 -522 0 0 -100 0 -100
522 0 523 0 -150 -150 -150 -150 78 -78 77 -77 250 251 250 251 0 53 0 53
-247 249 c-136 136 -250 248 -253 248 -3 0 -39 -34 -80 -75z"/>
</g>
</svg>
